<svg xmlns="http://www.w3.org/2000/svg" width="1600" height="1000" viewBox="0 0 1600 1000">
  <defs>
    <linearGradient id="bg" x1="0" y1="0" x2="1" y2="1">
      <stop offset="0" stop-color="#0b1220"/>
      <stop offset="0.55" stop-color="#111a2e"/>
      <stop offset="1" stop-color="#060a12"/>
    </linearGradient>
    <radialGradient id="glow" cx="30%" cy="25%" r="70%">
      <stop offset="0" stop-color="#e7b73c" stop-opacity="0.28"/>
      <stop offset="0.55" stop-color="#e7b73c" stop-opacity="0.08"/>
      <stop offset="1" stop-color="#e7b73c" stop-opacity="0"/>
    </radialGradient>
    <radialGradient id="glow2" cx="80%" cy="20%" r="70%">
      <stop offset="0" stop-color="#6ee7b7" stop-opacity="0.14"/>
      <stop offset="1" stop-color="#6ee7b7" stop-opacity="0"/>
    </radialGradient>
    <filter id="soft" x="-20%" y="-20%" width="140%" height="140%">
      <feGaussianBlur stdDeviation="14"/>
    </filter>
  </defs>

  <rect width="1600" height="1000" fill="url(#bg)"/>
  <rect width="1600" height="1000" fill="url(#glow)"/>
  <rect width="1600" height="1000" fill="url(#glow2)"/>

  <g opacity="0.22" filter="url(#soft)">
    <circle cx="340" cy="720" r="220" fill="#ffffff"/>
    <circle cx="520" cy="640" r="170" fill="#ffffff"/>
    <circle cx="1240" cy="780" r="260" fill="#ffffff"/>
  </g>

  <g opacity="0.65">
    <path d="M230 760c110-140 260-180 440-150 180 30 270 70 430 10 160-60 280-45 370 55" fill="none" stroke="#e7b73c" stroke-opacity="0.35" stroke-width="10"/>
    <path d="M240 800c120-120 270-150 440-120 170 30 260 60 420 10 160-50 280-30 360 70" fill="none" stroke="#6ee7b7" stroke-opacity="0.22" stroke-width="8"/>
  </g>

  <g opacity="0.5">
    <circle cx="1230" cy="220" r="5" fill="#eef2ff" opacity="0.55"/>
    <circle cx="1270" cy="250" r="3" fill="#eef2ff" opacity="0.35"/>
    <circle cx="1180" cy="280" r="4" fill="#eef2ff" opacity="0.4"/>
    <circle cx="1320" cy="210" r="3" fill="#eef2ff" opacity="0.3"/>
  </g>
</svg>
